<svg width="22" height="20" viewBox="0 0 22 20" fill="none" xmlns="http://www.w3.org/2000/svg">
<path d="M0 0H22V20H0V0Z" fill="white"/>
<path d="M8.69032 15.525C9.43283 15.7 10.2028 15.7834 11.0003 15.7834C13.9978 15.7834 16.6837 14.5084 18.517 12.4917C19.8003 11.0834 19.8003 8.90836 18.517 7.50836C18.3703 7.34169 18.2053 7.18336 18.0403 7.02502" fill="white"/>
<path d="M8.69032 15.525C9.43282 15.7 10.2028 15.7834 11.0003 15.7834C13.9978 15.7834 16.6837 14.5084 18.517 12.4917C19.8003 11.0834 19.8003 8.90836 18.517 7.50836C18.3703 7.34169 18.2053 7.18336 18.0403 7.02502" stroke="black" stroke-width="1.5" stroke-linecap="round" stroke-linejoin="round"/>
<path d="M3.48315 12.4917C4.21648 13.2917 5.08732 13.975 6.04982 14.5083L15.959 5.49167C14.5015 4.67501 12.8148 4.21667 10.9998 4.21667C8.00232 4.21667 5.31648 5.49168 3.48315 7.50835C2.19982 8.90835 2.19982 11.0917 3.48315 12.4917Z" fill="white" stroke="black" stroke-width="1.5" stroke-linecap="round" stroke-linejoin="round"/>
<path d="M8.17638 10C8.17638 10.7084 8.49721 11.35 9.00138 11.8167L12.998 8.18335C12.4939 7.71668 11.7789 7.43335 10.9997 7.43335C9.43221 7.43335 8.17638 8.57502 8.17638 10Z" fill="white" stroke="black" stroke-width="1.5" stroke-linecap="round" stroke-linejoin="round"/>
<path d="M19.4795 2.29163L15.9595 5.49162L12.9987 8.18329L9.00199 11.8166L6.04116 14.5083L2.52116 17.7083" fill="white"/>
<path d="M19.4795 2.29163L15.9595 5.49162L12.9987 8.18329L9.00199 11.8166L6.04116 14.5083L2.52116 17.7083" stroke="black" stroke-width="1.5" stroke-linecap="round" stroke-linejoin="round"/>
</svg>
