<svg width="26" height="20" viewBox="0 0 26 20" fill="none" xmlns="http://www.w3.org/2000/svg">
<path d="M0.358627 0H25.541V20H0.358627V0Z" fill="white"/>
<path d="M10.3054 15.5251C11.1553 15.7001 12.0367 15.7835 12.9496 15.7835C16.3807 15.7835 19.455 14.5085 21.5535 12.4918C23.0225 11.0835 23.0225 8.90848 21.5535 7.50848C21.3857 7.34181 21.1968 7.18348 21.0079 7.02515" fill="white"/>
<path d="M10.3054 15.5251C11.1553 15.7001 12.0367 15.7835 12.9496 15.7835C16.3807 15.7835 19.455 14.5085 21.5535 12.4918C23.0225 11.0835 23.0225 8.90848 21.5535 7.50848C21.3857 7.34181 21.1968 7.18348 21.0079 7.02515" stroke="black" stroke-width="1.5" stroke-linecap="round" stroke-linejoin="round"/>
<path d="M4.34546 12.4918C5.18488 13.2918 6.18168 13.9751 7.28341 14.5085L18.626 5.4918C16.9576 4.67513 15.027 4.2168 12.9494 4.2168C9.51835 4.2168 6.444 5.4918 4.34546 7.50847C2.87649 8.90847 2.87649 11.0918 4.34546 12.4918Z" fill="white" stroke="black" stroke-width="1.5" stroke-linecap="round" stroke-linejoin="round"/>
<path d="M9.71719 10.0003C9.71719 10.7086 10.0844 11.3503 10.6615 11.8169L15.2363 8.1836C14.6592 7.71693 13.8408 7.43359 12.9489 7.43359C11.1547 7.43359 9.71719 8.57526 9.71719 10.0003Z" fill="white" stroke="black" stroke-width="1.5" stroke-linecap="round" stroke-linejoin="round"/>
<path d="M22.6553 2.29175L18.6261 5.49175L15.237 8.18341L10.6622 11.8167L7.27303 14.5084L3.24385 17.7084" fill="white"/>
<path d="M22.6553 2.29175L18.6261 5.49175L15.237 8.18341L10.6622 11.8167L7.27303 14.5084L3.24385 17.7084" stroke="black" stroke-width="1.5" stroke-linecap="round" stroke-linejoin="round"/>
</svg>
